<svg width="96" height="96" viewBox="0 0 96 96" xmlns="http://www.w3.org/2000/svg">
  <defs>
    <linearGradient id="g" x1="0" y1="0" x2="1" y2="1">
      <stop offset="0" stop-color="#d9ffe8"/>
      <stop offset="1" stop-color="#4ae38c"/>
    </linearGradient>
  </defs>
  <rect x="12" y="12" width="72" height="72" rx="18" fill="#08161a" stroke="#54ef9e" stroke-width="4"/>
  <path d="M48 25c3 0 5 2 5 5v13h13c3 0 5 2 5 5s-2 5-5 5H53v13c0 3-2 5-5 5s-5-2-5-5V53H30c-3 0-5-2-5-5s2-5 5-5h13V30c0-3 2-5 5-5z" fill="url(#g)"/>
</svg>
